PathFileType	4	(X/Y/Z)	C:/Users/beibeiliu/ov580/test_trc/User1\sequence.26_training_dense_left.trc
DataRate	CameraRate	NumFrames	NumMarkers	Units	OrigDataRate	OrigDataStartFrame	OrigNumFrames
120	120	17	19	mm	120	1	330
Frame#	Time	ThumbCMC			ThumbMCP			ThumbIP			ThumbTip			IndexMCP			IndexPIP			IndexTip			MiddleMCP			MiddlePIP			MiddleTip			RingMCP			RingPIP			RingTip			PinkyMCP			PinkyPIP			PinkyTip			BackHand1			BackHand2			BackHand3	
		X0	Y0	Z0	X1	Y1	Z1	X2	Y2	Z2	X3	Y3	Z3	X4	Y4	Z4	X5	Y5	Z5	X6	Y6	Z6	X7	Y7	Z7	X8	Y8	Z8	X9	Y9	Z9	X10	Y10	Z10	X11	Y11	Z11	X12	Y12	Z12	X13	Y13	Z13	X14	Y14	Z14	X15	Y15	Z15	X16	Y16	Z16	X17	Y17	Z17	X18	Y18	Z18	
0	0	-119.049	-23.0271	66.3311	-95.4137	-30.9446	51.9443	-72.778	-30.4983	34.9456	-52.8993	-33.3168	20.7658	-129.501	-19.3018	-22.9801	-125.048	-21.6082	-47.859	-124.176	-23.0243	-79.218	-155.88	-17.8189	-33.7703	-156.152	-20.1524	-61.9481	-158.68	-25.4325	-92.2142	-179.258	-26.7047	-31.0426	-182.027	-29.7514	-54.489	-185.02	-38.5723	-79.718	-207.87	-41.1455	-10.7298	-213.858	-45.4514	-25.9351	-219.619	-44.9578	-52.0208	-181.519	-13.0547	24.7829	-186.476	-8.55799	63.1532	-150.239	-6.21764	44.6959	
1	0.00833333	-120.18	-23.4298	63.0693	-94.074	-29.0678	50.3887	-76.7897	-31.9209	31.6182	-53.5314	-34.7366	19.1207	-130.26	-18.445	-25.2979	-126.836	-20.1595	-53.151	-126.366	-23.694	-81.3989	-155.644	-17.1935	-37.0468	-155.73	-19.398	-60.2592	-159.398	-25.0222	-93.0413	-184.117	-25.9326	-29.7556	-181.37	-29.6622	-55.6245	-184.93	-38.3008	-85.5269	-204.904	-39.9109	-8.19207	-216.196	-46.3116	-31.203	-222.573	-44.3656	-50.5272	-184.343	-14.0482	27.7557	-185.458	-7.47214	59.9642	-149.412	-6.89602	42.3975	
2	0.0166667	-120.426	-23.1707	64.466	-96.072	-29.0774	52.0303	-71.9562	-30.2063	29.9552	-56.5867	-35.0994	21.0655	-124.803	-17.3033	-28.7468	-126.925	-19.4084	-51.4737	-122.51	-22.158	-77.5456	-157.958	-15.7578	-34.23	-155.793	-18.7946	-61.8604	-156.055	-23.2181	-91.5947	-178.872	-24.2479	-28.3749	-181.589	-30.2209	-60.3865	-185.466	-38.2028	-84.7321	-206.835	-38.6212	-9.77691	-215.553	-45.5798	-29.3984	-220.526	-46.0357	-51.6591	-184.873	-12.3675	26.7841	-184.545	-8.30384	59.4794	-151.1	-6.42447	44.7172	
3	0.025	-116.428	-20.9416	60.6427	-95.2729	-28.1106	48.9579	-73.9522	-29.8444	31.0144	-55.8645	-34.1552	22.5698	-127.32	-16.4652	-28.1182	-122.143	-17.0975	-54.3066	-127.482	-21.7045	-76.9249	-155.244	-14.9177	-32.7776	-155.59	-18.0043	-63.8811	-158.154	-22.7183	-92.2446	-178.205	-23.6599	-31.0286	-181.984	-29.1674	-59.0472	-182.51	-36.0459	-80.0435	-201.799	-37.3703	-9.45876	-211.292	-42.6817	-30.4958	-220.987	-43.093	-51.5705	-182.539	-12.6875	24.1156	-188.024	-7.65722	58.134	-149.129	-5.16211	41.9973	
4	0.0333333	-120.958	-22.1813	63.8331	-93.3582	-27.099	48.0645	-71.8296	-28.6311	33.6734	-52.709	-32.7084	22.0785	-124.372	-14.6944	-24.1296	-123.561	-15.9541	-48.8988	-122.187	-18.7923	-75.5078	-152.651	-12.4583	-37.867	-152.336	-16.7642	-65.6507	-155.178	-20.2249	-90.383	-182.376	-24.0444	-29.6216	-180.304	-27.7484	-60.3608	-183.851	-37.2378	-84.1716	-206.939	-38.7417	-10.3186	-209.163	-42.146	-29.3688	-220.452	-42.6591	-51.8683	-183.195	-10.4037	25.0585	-182.055	-5.99212	57.6227	-149.571	-5.56659	42.3329	
5	0.0416667	-119.487	-20.8616	60.3161	-94.5117	-26.2591	48.9818	-72.7733	-27.517	29.7763	-51.7992	-31.6061	21.3786	-123.469	-14.1311	-22.6169	-125.802	-16.0211	-52.7508	-122.721	-18.0972	-75.044	-156.475	-12.8498	-36.3778	-153.088	-14.7671	-62.4853	-158.052	-19.8482	-91.2746	-182.575	-22.8083	-29.2941	-182.887	-27.2858	-59.6745	-184.693	-35.7165	-80.9627	-204.63	-36.0962	-10.4153	-208.668	-40.7523	-27.3628	-219.295	-43.9084	-51.0021	-179.944	-9.76474	29.1831	-184.43	-6.42655	59.8463	-146.297	-4.56694	44.4269	
6	0.05	-117.038	-19.07	61.651	-91.8096	-24.7019	49.3683	-74.771	-28.5461	33.7138	-54.604	-30.6135	21.7043	-126.908	-13.3166	-27.5401	-122.388	-14.9933	-47.9338	-124.865	-17.0797	-75.0632	-157.045	-11.9399	-36.4604	-152.595	-13.7939	-59.7018	-155.7	-17.384	-92.6013	-177.484	-20.6771	-26.72	-181.099	-25.4349	-56.3798	-180.549	-33.4396	-84.6602	-206.072	-36.2755	-9.63726	-211.759	-41.6262	-31.7391	-218.604	-42.3499	-52.8418	-178.532	-11.0768	30.0538	-185.875	-5.89319	61.8678	-149.625	-2.2844	45.9689	
7	0.0583333	-118.134	-17.6132	66.3312	-93.4205	-23.9958	51.9277	-70.6077	-23.3368	31.7073	-51.7062	-26.5662	23.8376	-125.61	-10.439	-26.0204	-121.077	-12.6563	-52.6587	-125.31	-14.8345	-75.401	-154.865	-10.0592	-36.1076	-153.226	-12.4216	-60.6141	-151.723	-15.9683	-95.136	-176.954	-19.0315	-28.2342	-182.896	-24.667	-56.8022	-182.4	-32.2542	-80.8391	-205.974	-34.1329	-12.373	-209.301	-38.7072	-28.9993	-217.468	-41.7207	-56.2816	-183.796	-9.64604	29.5911	-185.531	-4.68332	59.9423	-146.625	0.378075	45.3983	
8	0.0666667	-117.714	-17.2102	63.3349	-93.4565	-23.0004	48.725	-74.7342	-23.7811	31.6293	-52.1604	-24.7452	19.4568	-125.306	-8.71704	-23.5069	-122.026	-10.1357	-53.423	-119.245	-12.9885	-79.6382	-153.997	-7.48531	-32.5848	-155.328	-10.3929	-64.3002	-153.807	-14.4648	-92.6571	-178.692	-17.6977	-30.0052	-181.971	-22.4317	-56.5045	-178.827	-30.4208	-83.5975	-204.71	-32.4109	-8.15924	-208.414	-37.006	-28.2081	-217.244	-39.2986	-54.1193	-180.686	-8.41501	27.9654	-186.171	-4.2002	62.7368	-148.199	-0.816141	46.1569	
9	0.075	-119.728	-16.7843	64.6325	-89.9713	-21.0111	51.1163	-70.9273	-21.0857	35.9466	-54.6508	-25.9017	22.3529	-123.37	-7.85342	-24.5637	-124.121	-8.99058	-48.6562	-122.623	-10.6263	-76.7502	-151.62	-5.67448	-34.8793	-150.156	-7.71739	-61.8696	-151.821	-12.7316	-91.0491	-174.802	-15.3633	-31.2553	-182.069	-20.0103	-55.0638	-179.623	-29.014	-81.8023	-199.593	-29.9219	-8.89173	-209.305	-36.7378	-30.6808	-214.348	-37.6828	-53.7224	-182.966	-6.63541	28.2954	-185.017	-1.81873	58.6556	-146.794	0.872857	47.0548	
10	0.0833333	-117.105	-14.7595	62.9366	-92.0233	-20.637	50.7571	-71.2343	-21.0585	33.2831	-50.7215	-22.9049	22.0509	-125.412	-7.58135	-25.9516	-120.949	-8.13957	-49.625	-122.675	-9.92997	-79.1515	-152.448	-5.07172	-36.6664	-150.448	-7.60379	-60.9169	-154.9	-11.9113	-91.0166	-180.519	-16.4214	-29.2676	-180.771	-19.3933	-55.6458	-178.372	-27.2299	-83.5865	-199.476	-29.5723	-9.51978	-208.463	-34.9173	-30.6066	-214.076	-36.5992	-53.2239	-182.513	-6.04967	28.5469	-183.882	-2.45527	57.6822	-148.541	2.22383	45.5711	
11	0.0916667	-120.741	-15.4426	65.0791	-90.2729	-18.4188	53.5818	-70.4421	-18.4582	35.5448	-54.4098	-22.1872	22.5795	-123.684	-4.95305	-25.8416	-120.473	-5.65492	-51.708	-122.548	-7.80075	-75.1767	-152.445	-3.25176	-33.4264	-152.568	-4.94002	-62.7305	-152.907	-8.56462	-94.3843	-178.913	-14.4102	-27.3533	-177.179	-17.7142	-55.0818	-180.084	-25.5649	-80.0693	-199.412	-28.1555	-15.0639	-205.504	-33.3988	-29.2171	-216.213	-35.7348	-54.4573	-182.338	-2.82591	26.7726	-186.698	-0.203787	59.6594	-145.472	2.08244	44.4973	
12	0.1	-121.049	-12.66	61.6369	-95.244	-19.0948	50.3759	-70.72	-17.3074	35.6991	-52.2439	-18.5318	24.3748	-122.929	-2.63949	-26.033	-118.557	-3.0842	-49.6009	-120.803	-5.37306	-73.1841	-150.826	-1.38984	-34.702	-151.985	-3.44503	-63.4477	-153.954	-6.42791	-89.9871	-180.339	-13.2709	-28.8754	-175.499	-16.9135	-58.056	-177.933	-25.4624	-81.5847	-201.696	-28.4662	-10.0807	-206.18	-33.5605	-28.7369	-212.529	-35.3475	-57.0943	-178.343	-3.72459	26.2508	-184.936	-0.602079	62.6801	-148.646	2.59364	47.4203	
13	0.108333	-121.175	-11.4523	66.5086	-92.2262	-13.7758	51.8389	-71.8106	-12.4115	33.9561	-53.1413	-15.3996	22.0879	-128.093	1.03397	-22.1668	-122.503	1.76767	-46.4266	-121.037	-0.50605	-76.4962	-153.293	2.55149	-35.8879	-150.395	0.297272	-62.5735	-150.919	-3.43842	-89.2555	-177.062	-11.0167	-31.2147	-176.142	-15.804	-55.0514	-173.974	-25.3038	-80.2775	-198.721	-26.2604	-16.1175	-204.887	-35.5226	-35.9904	-204.954	-38.4916	-59.7547	-180.716	-2.584	26.4131	-186.693	1.79958	60.4134	-150.992	7.13874	50.1844	
14	0.116667	-122.059	-6.22946	67.3244	-96.0175	-10.3031	55.3078	-74.3849	-8.99018	36.5959	-57.8019	-11.4488	22.0864	-129.359	6.66468	-23.6619	-125.142	6.73762	-47.3107	-121.975	3.57866	-74.882	-153.097	5.73871	-31.6131	-149.662	4.21427	-60.3827	-150.825	-1.11033	-94.1521	-175.631	-9.36368	-30.4813	-172.906	-15.9032	-58.3139	-167.059	-27.8635	-79.3698	-200.223	-28.6354	-17.0888	-200.293	-35.8974	-35.0026	-194.28	-47.7101	-63.7412	-187.274	-1.53801	28.7854	-188.493	-0.95701	59.7903	-154.995	8.7132	48.1568	
15	0.125	-124.751	-3.3216	67.5281	-98.1	-5.80547	51.9977	-76.1316	-2.25481	31.677	-59.4768	-6.87861	22.0784	-128.965	12.669	-20.3472	-122.66	13.8464	-45.8703	-123.701	9.72707	-76.704	-156.699	8.82864	-30.519	-147.879	9.35433	-62.4897	-146.89	4.32618	-90.0597	-175.111	-9.34146	-30.0521	-166.429	-17.4901	-57.2829	-158.984	-34.9579	-78.7073	-195.837	-30.3976	-18.4289	-187.862	-39.5166	-38.5456	-171.902	-53.8673	-59.3492	-185.894	-2.09219	25.4492	-192.278	-1.75833	59.6206	-156.654	13.2455	46.7193	
16	0.133333	-128.165	1.71684	69.3821	-98.6789	0.963867	49.751	-81.6189	1.72072	32.0446	-62.8331	0.492346	14.4007	-132.801	17.2466	-17.7789	-127.462	16.825	-48.2313	-124.124	14.0763	-72.9811	-158.443	9.46338	-29.7143	-151.417	10.3681	-61.1538	-145.22	5.58933	-89.5999	-168.706	-9.95103	-31.7769	-159.902	-23.4334	-60.0384	-143.475	-46.5913	-74.2698	-187.271	-32.745	-21.0303	-176.11	-43.4802	-38.6229	-152.973	-59.0985	-47.7781	-189.461	-3.63746	27.9837	-195.123	-1.85045	56.4685	-163.02	14.4094	45.5587	
